<mxfile host="65bd71144e">
    <diagram id="cGuh4ydlKH-3rqVrfL0V" name="Page-1">
        <mxGraphModel dx="803" dy="1784" grid="1" gridSize="10" guides="1" tooltips="1" connect="1" arrows="1" fold="1" page="1" pageScale="1" pageWidth="1169" pageHeight="827" background="none" math="0" shadow="0">
            <root>
                <mxCell id="0"/>
                <mxCell id="1" parent="0"/>
                <mxCell id="5" value="" style="edgeStyle=none;html=1;rounded=0;" edge="1" parent="1" source="2" target="4">
                    <mxGeometry relative="1" as="geometry"/>
                </mxCell>
                <mxCell id="2" value="Entry Point" style="shape=process;whiteSpace=wrap;html=1;backgroundOutline=1;gradientColor=none;rounded=0;" vertex="1" parent="1">
                    <mxGeometry x="525" y="-827" width="120" height="60" as="geometry"/>
                </mxCell>
                <mxCell id="7" style="edgeStyle=none;html=1;rounded=0;" edge="1" parent="1" source="4" target="6">
                    <mxGeometry relative="1" as="geometry"/>
                </mxCell>
                <mxCell id="4" value="printMenu()" style="rounded=0;whiteSpace=wrap;html=1;gradientColor=none;" vertex="1" parent="1">
                    <mxGeometry x="525" y="-720" width="120" height="60" as="geometry"/>
                </mxCell>
                <mxCell id="17" value="" style="edgeStyle=orthogonalEdgeStyle;html=1;rounded=0;" edge="1" parent="1" source="6" target="15">
                    <mxGeometry relative="1" as="geometry"/>
                </mxCell>
                <mxCell id="18" value="" style="edgeStyle=orthogonalEdgeStyle;html=1;rounded=0;" edge="1" parent="1" source="6" target="16">
                    <mxGeometry relative="1" as="geometry"/>
                </mxCell>
                <mxCell id="51" style="edgeStyle=orthogonalEdgeStyle;html=1;exitX=1;exitY=0.5;exitDx=0;exitDy=0;entryX=0;entryY=0.5;entryDx=0;entryDy=0;startArrow=none;startFill=0;endArrow=classic;endFill=1;rounded=0;" edge="1" parent="1" source="6" target="8">
                    <mxGeometry relative="1" as="geometry"/>
                </mxCell>
                <mxCell id="6" value="Enter selection&lt;br&gt;[(1,... 7)]" style="rhombus;whiteSpace=wrap;html=1;gradientColor=none;rounded=0;" vertex="1" parent="1">
                    <mxGeometry x="527" y="-610" width="115" height="90" as="geometry"/>
                </mxCell>
                <mxCell id="55" style="edgeStyle=orthogonalEdgeStyle;html=1;exitX=0.5;exitY=0;exitDx=0;exitDy=0;entryX=0.5;entryY=0;entryDx=0;entryDy=0;startArrow=none;startFill=0;endArrow=none;endFill=0;strokeWidth=2;rounded=0;" edge="1" parent="1" source="8" target="6">
                    <mxGeometry relative="1" as="geometry">
                        <Array as="points">
                            <mxPoint x="760" y="-620"/>
                            <mxPoint x="585" y="-620"/>
                        </Array>
                    </mxGeometry>
                </mxCell>
                <mxCell id="8" value="FALSE&lt;br&gt;input -neq range&amp;nbsp;" style="rounded=0;whiteSpace=wrap;html=1;gradientColor=none;" vertex="1" parent="1">
                    <mxGeometry x="700" y="-595" width="120" height="60" as="geometry"/>
                </mxCell>
                <mxCell id="22" value="" style="edgeStyle=orthogonalEdgeStyle;html=1;rounded=0;" edge="1" parent="1" source="15" target="21">
                    <mxGeometry relative="1" as="geometry"/>
                </mxCell>
                <mxCell id="15" value="TRUE&lt;br&gt;input -eq [(1,..6)]&amp;nbsp;" style="rounded=0;whiteSpace=wrap;html=1;gradientColor=none;" vertex="1" parent="1">
                    <mxGeometry x="524.5" y="-473.5" width="120" height="60" as="geometry"/>
                </mxCell>
                <mxCell id="20" value="" style="edgeStyle=orthogonalEdgeStyle;html=1;rounded=0;" edge="1" parent="1" source="16" target="19">
                    <mxGeometry relative="1" as="geometry"/>
                </mxCell>
                <mxCell id="16" value="TRUE&lt;br&gt;input -eq 7]" style="rounded=0;whiteSpace=wrap;html=1;gradientColor=none;" vertex="1" parent="1">
                    <mxGeometry x="370" y="-595" width="120" height="60" as="geometry"/>
                </mxCell>
                <mxCell id="19" value="Application exit" style="rounded=0;whiteSpace=wrap;html=1;gradientColor=none;" vertex="1" parent="1">
                    <mxGeometry x="200" y="-595" width="120" height="60" as="geometry"/>
                </mxCell>
                <mxCell id="26" value="" style="edgeStyle=orthogonalEdgeStyle;html=1;rounded=0;" edge="1" parent="1" source="21" target="23">
                    <mxGeometry relative="1" as="geometry"/>
                </mxCell>
                <mxCell id="21" value="toContinue()" style="rounded=0;whiteSpace=wrap;html=1;gradientColor=none;" vertex="1" parent="1">
                    <mxGeometry x="524.5" y="-360" width="120" height="60" as="geometry"/>
                </mxCell>
                <mxCell id="48" value="" style="edgeStyle=orthogonalEdgeStyle;html=1;startArrow=none;startFill=0;endArrow=classic;endFill=1;rounded=0;" edge="1" parent="1" source="23" target="47">
                    <mxGeometry relative="1" as="geometry"/>
                </mxCell>
                <mxCell id="58" value="" style="edgeStyle=orthogonalEdgeStyle;html=1;startArrow=none;startFill=0;endArrow=classic;endFill=1;strokeWidth=1;rounded=0;" edge="1" parent="1" source="23" target="56">
                    <mxGeometry relative="1" as="geometry"/>
                </mxCell>
                <mxCell id="23" value="Enter selection&lt;br&gt;[Y/N/C]&lt;br&gt;(case sensitive)" style="rhombus;whiteSpace=wrap;html=1;gradientColor=none;rounded=0;" vertex="1" parent="1">
                    <mxGeometry x="513.75" y="-260" width="141.5" height="130" as="geometry"/>
                </mxCell>
                <mxCell id="30" value="" style="edgeStyle=orthogonalEdgeStyle;html=1;rounded=0;" edge="1" parent="1" source="27" target="23">
                    <mxGeometry relative="1" as="geometry"/>
                </mxCell>
                <mxCell id="46" style="edgeStyle=orthogonalEdgeStyle;html=1;exitX=1;exitY=0.5;exitDx=0;exitDy=0;entryX=1;entryY=0.5;entryDx=0;entryDy=0;startArrow=none;startFill=0;endArrow=classic;endFill=1;rounded=0;" edge="1" parent="1" source="27" target="4">
                    <mxGeometry relative="1" as="geometry">
                        <Array as="points">
                            <mxPoint x="920" y="-230"/>
                            <mxPoint x="920" y="-690"/>
                        </Array>
                    </mxGeometry>
                </mxCell>
                <mxCell id="27" value="TRUE&lt;br&gt;input -eq Y" style="rounded=0;whiteSpace=wrap;html=1;gradientColor=none;" vertex="1" parent="1">
                    <mxGeometry x="700" y="-260" width="120" height="60" as="geometry"/>
                </mxCell>
                <mxCell id="29" value="" style="edgeStyle=orthogonalEdgeStyle;html=1;rounded=0;" edge="1" parent="1" source="28" target="23">
                    <mxGeometry relative="1" as="geometry"/>
                </mxCell>
                <mxCell id="40" value="" style="edgeStyle=orthogonalEdgeStyle;html=1;rounded=0;" edge="1" parent="1" source="28" target="31">
                    <mxGeometry relative="1" as="geometry"/>
                </mxCell>
                <mxCell id="28" value="&lt;span&gt;TRUE&lt;/span&gt;&lt;br&gt;&lt;span&gt;input -eq C&lt;/span&gt;" style="rounded=0;whiteSpace=wrap;html=1;gradientColor=none;" vertex="1" parent="1">
                    <mxGeometry x="700" y="-170" width="120" height="60" as="geometry"/>
                </mxCell>
                <mxCell id="45" style="edgeStyle=orthogonalEdgeStyle;html=1;exitX=0.5;exitY=0;exitDx=0;exitDy=0;startArrow=none;startFill=0;endArrow=classic;endFill=1;rounded=0;" edge="1" parent="1" source="31">
                    <mxGeometry relative="1" as="geometry">
                        <mxPoint x="920.181818181818" y="-240" as="targetPoint"/>
                    </mxGeometry>
                </mxCell>
                <mxCell id="31" value="system(&quot;cls&quot;);" style="whiteSpace=wrap;html=1;rounded=0;gradientColor=none;" vertex="1" parent="1">
                    <mxGeometry x="860" y="-170" width="120" height="60" as="geometry"/>
                </mxCell>
                <mxCell id="49" style="edgeStyle=orthogonalEdgeStyle;html=1;exitX=0.5;exitY=0;exitDx=0;exitDy=0;entryX=0.5;entryY=1;entryDx=0;entryDy=0;startArrow=none;startFill=0;endArrow=classic;endFill=1;rounded=0;" edge="1" parent="1" source="47" target="19">
                    <mxGeometry relative="1" as="geometry"/>
                </mxCell>
                <mxCell id="47" value="&lt;span&gt;TRUE&lt;/span&gt;&lt;br&gt;&lt;span&gt;input -eq N&lt;/span&gt;" style="whiteSpace=wrap;html=1;gradientColor=none;rounded=0;" vertex="1" parent="1">
                    <mxGeometry x="200" y="-225" width="120" height="60" as="geometry"/>
                </mxCell>
                <mxCell id="59" style="edgeStyle=orthogonalEdgeStyle;html=1;exitX=0.25;exitY=0;exitDx=0;exitDy=0;startArrow=none;startFill=0;endArrow=classic;endFill=1;strokeWidth=1;entryX=0.5;entryY=0;entryDx=0;entryDy=0;rounded=0;" edge="1" parent="1" source="56" target="23">
                    <mxGeometry relative="1" as="geometry">
                        <mxPoint x="585" y="-270" as="targetPoint"/>
                        <Array as="points">
                            <mxPoint x="470" y="-90"/>
                            <mxPoint x="470" y="-270"/>
                            <mxPoint x="585" y="-270"/>
                        </Array>
                    </mxGeometry>
                </mxCell>
                <mxCell id="56" value="FALSE&lt;br&gt;input -neq range&amp;nbsp;" style="rounded=0;whiteSpace=wrap;html=1;gradientColor=none;" vertex="1" parent="1">
                    <mxGeometry x="525" y="-90" width="120" height="60" as="geometry"/>
                </mxCell>
            </root>
        </mxGraphModel>
    </diagram>
</mxfile>